optRun
version=1
nRows=16
nColumns=21
inDegrees=no
endheader
time	r_shoulder_elev	r_elbow_flex	r_shoulder_elev_u	r_elbow_flex_u	TRIlong.activation	TRIlong.fiber_length	TRIlat.activation	TRIlat.fiber_length	TRImed.activation	TRImed.fiber_length	BIClong.activation	BIClong.fiber_length	BICshort.activation	BICshort.fiber_length	BRA.activation	BRA.fiber_length	DeltAnt.activation	DeltAnt.fiber_length	DeltPost.activation	DeltPost.fiber_length
        0.125540	        0.021909	        0.352386	       -0.878272	        2.147643	        0.045777	        0.144644	        0.051586	        0.077795	        0.109002	        0.072455	        0.106130	        0.139270	        0.258744	        0.140588	        0.205715	        0.085991	        0.034165	        0.161239	        0.164428	        0.109462
        0.126778	        0.020813	        0.355056	       -0.892935	        2.165573	        0.045731	        0.144667	        0.051603	        0.077826	        0.109593	        0.072514	        0.106673	        0.139233	        0.260766	        0.140533	        0.207250	        0.085977	        0.033942	        0.161278	        0.165536	        0.109407
        0.128015	        0.019698	        0.357747	       -0.907896	        2.183578	        0.045684	        0.144690	        0.051620	        0.077869	        0.110184	        0.072573	        0.107216	        0.139195	        0.262785	        0.140478	        0.208784	        0.085964	        0.033719	        0.161317	        0.166642	        0.109352
        0.129253	        0.018565	        0.360462	       -0.923599	        2.202923	        0.045639	        0.144713	        0.051637	        0.077922	        0.110774	        0.072633	        0.107758	        0.139156	        0.264802	        0.140421	        0.210316	        0.085950	        0.033496	        0.161357	        0.167746	        0.109295
        0.130491	        0.017412	        0.363202	       -0.940326	        2.224446	        0.045593	        0.144736	        0.051654	        0.077981	        0.111364	        0.072693	        0.108299	        0.139117	        0.266816	        0.140364	        0.211847	        0.085936	        0.033273	        0.161398	        0.168850	        0.109238
        0.133269	        0.014743	        0.369457	       -0.981509	        2.280843	        0.045493	        0.144787	        0.051692	        0.078120	        0.112686	        0.072831	        0.109512	        0.139028	        0.271327	        0.140234	        0.215277	        0.085903	        0.032771	        0.161491	        0.171320	        0.109105
        0.136047	        0.011954	        0.375885	       -1.027489	        2.348505	        0.045394	        0.144838	        0.051730	        0.078271	        0.114007	        0.072973	        0.110720	        0.138936	        0.275824	        0.140101	        0.218700	        0.085869	        0.032269	        0.161589	        0.173782	        0.108967
        0.138824	        0.009032	        0.382512	       -1.077048	        2.424976	        0.045298	        0.144889	        0.051768	        0.078426	        0.115325	        0.073119	        0.111925	        0.138842	        0.280308	        0.139964	        0.222116	        0.085833	        0.031766	        0.161691	        0.176237	        0.108822
        0.141602	        0.005969	        0.389360	       -1.128837	        2.507226	        0.045203	        0.144939	        0.051806	        0.078584	        0.116642	        0.073271	        0.113126	        0.138744	        0.284777	        0.139823	        0.225523	        0.085796	        0.031263	        0.161797	        0.178685	        0.108671
        0.144380	        0.002760	        0.396443	       -1.181930	        2.593102	        0.045111	        0.144989	        0.051844	        0.078747	        0.117956	        0.073428	        0.114323	        0.138644	        0.289233	        0.139679	        0.228924	        0.085757	        0.030760	        0.161909	        0.181124	        0.108512
        0.149712	       -0.003818	        0.410722	       -1.286418	        2.765561	        0.044941	        0.145087	        0.051917	        0.079077	        0.120474	        0.073745	        0.116610	        0.138441	        0.297748	        0.139389	        0.235430	        0.085676	        0.029794	        0.162138	        0.185786	        0.108185
        0.155044	       -0.010960	        0.425943	       -1.393423	        2.945709	        0.044779	        0.145185	        0.051991	        0.079430	        0.122985	        0.074086	        0.118884	        0.138222	        0.306212	        0.139080	        0.241908	        0.085587	        0.028830	        0.162385	        0.190419	        0.107829
        0.160376	       -0.018683	        0.442149	       -1.503678	        3.134505	        0.044627	        0.145285	        0.052065	        0.079806	        0.125489	        0.074449	        0.121143	        0.137987	        0.314626	        0.138751	        0.248358	        0.085488	        0.027868	        0.162652	        0.195024	        0.107441
        0.165707	       -0.027003	        0.459386	       -1.617695	        3.332315	        0.044484	        0.145387	        0.052139	        0.080205	        0.127986	        0.074837	        0.123389	        0.137731	        0.322990	        0.138400	        0.254781	        0.085378	        0.026910	        0.162939	        0.199600	        0.107020
        0.171039	       -0.035939	        0.477695	       -1.734756	        3.536933	        0.044352	        0.145492	        0.052213	        0.080630	        0.130476	        0.075251	        0.125622	        0.137454	        0.331303	        0.138025	        0.261177	        0.085256	        0.025955	        0.163247	        0.204149	        0.106567
        0.179765	       -0.051936	        0.510065	       -1.931396	        3.881639	        0.044158	        0.145669	        0.052334	        0.081383	        0.134535	        0.075984	        0.129245	        0.136947	        0.344800	        0.137354	        0.271584	        0.085026	        0.024403	        0.163795	        0.211532	        0.105748
